# xmcd
#
# Track frame offsets: 
#        150
#        23970
#        42983
#        58165
#        73715
#        90755
#        109855
#        123470
#        142625
#        159983
#        174868
#
# Disc length: 2566 seconds
#
# Revision: 0
# Processed by: cddbd v1.5.1PL2 Copyright (c) Steve Scherf et al.
# Submitted via: ExactAudioCopy v0.95b3
#
DISCID=850a040b
DTITLE=Bill DuCreux - Wind and Rain
DYEAR=1900
DGENRE=
TTITLE0=The Rain
TTITLE1=Still Loving You
TTITLE2=Didn't It Love
TTITLE3=Draggin' Chains
TTITLE4=When No One Else Mentioned Your Name
TTITLE5=Beautiful Soul
TTITLE6=Sweet Nevada Freedom
TTITLE7=Angel In My Arms
TTITLE8=Cowboy Club
TTITLE9=If I Can Dream
TTITLE10=The Rain (Radio Edit)
EXTD=
EXTT0=The Rain\n
EXTT1=
EXTT2=
EXTT3=
EXTT4=
EXTT5=
EXTT6=
EXTT7=
EXTT8=
EXTT9=
EXTT10=
PLAYORDER=
